<?xml version="1.0" encoding="UTF-8" standalone="no"?>
<!-- Created with Inkscape (http://www.inkscape.org/) -->

<svg
   xmlns:dc="http://purl.org/dc/elements/1.1/"
   xmlns:cc="http://creativecommons.org/ns#"
   xmlns:rdf="http://www.w3.org/1999/02/22-rdf-syntax-ns#"
   xmlns:svg="http://www.w3.org/2000/svg"
   xmlns="http://www.w3.org/2000/svg"
   xmlns:sodipodi="http://sodipodi.sourceforge.net/DTD/sodipodi-0.dtd"
   xmlns:inkscape="http://www.inkscape.org/namespaces/inkscape"
   id="svg2"
   version="1.1"
   inkscape:version="0.48.3.1 r9886"
   width="22"
   height="22"
   sodipodi:docname="indicator-bitcoin-connecting.svg"
   inkscape:export-filename="/store/orion/projects/bitcoin/BC_Logo_icon32.png"
   inkscape:export-xdpi="11.25"
   inkscape:export-ydpi="11.25"
   style="display:inline">
  <defs
     id="defs9" />
  <metadata
     id="metadata8">
    <rdf:RDF>
      <cc:Work
         rdf:about="">
        <dc:format>image/svg+xml</dc:format>
        <dc:type
           rdf:resource="http://purl.org/dc/dcmitype/StillImage" />
        <dc:title></dc:title>
      </cc:Work>
    </rdf:RDF>
  </metadata>
  <sodipodi:namedview
     pagecolor="#ffffff"
     bordercolor="#666666"
     borderopacity="1"
     objecttolerance="10"
     gridtolerance="10"
     guidetolerance="10"
     inkscape:pageopacity="0"
     inkscape:pageshadow="2"
     inkscape:window-width="1275"
     inkscape:window-height="972"
     id="namedview4"
     showgrid="true"
     inkscape:zoom="11.313708"
     inkscape:cx="12.073901"
     inkscape:cy="10.648336"
     inkscape:window-x="1496"
     inkscape:window-y="85"
     inkscape:window-maximized="0"
     inkscape:current-layer="layer1"
     inkscape:object-paths="false"
     inkscape:snap-nodes="false">
    <inkscape:grid
       type="xygrid"
       id="grid3778"
       empspacing="5"
       visible="true"
       enabled="true"
       snapvisiblegridlinesonly="true" />
  </sodipodi:namedview>
  <g
     inkscape:groupmode="layer"
     id="layer1"
     inkscape:label="Front"
     style="display:inline"
     transform="translate(0,-234)">
    <g
       id="g3900">
      <path
         inkscape:connector-curvature="0"
         style="display:inline;opacity:0.29999999999999999"
         d="m 10.6232,237.94785 c -0.560489,0.0221 -1.1204158,0.0889 -1.5244901,0.19508 -2.1675568,0.56955 -3.8727532,1.83166 -4.9892404,3.70654 -1.1309158,1.89913 -1.4133714,4.37547 -0.748386,6.49342 0.908594,2.89383 3.327043,5.022 6.2919864,5.54587 0.3021032,0.0531 0.7415271,0.0887 1.3304641,0.0836 l 0,-2.17377 c -0.07252,0.27751 -0.174411,0.34 -0.41577,0.25082 -0.04249,-0.0157 -0.212174,-0.0661 -0.388052,-0.11147 l -0.3326161,-0.0836 0.2217441,-0.86393 c 0.120517,-0.47927 0.208634,-0.87709 0.194026,-0.8918 -0.06844,-0.0688 -0.8298194,-0.24306 -0.8592581,-0.19508 -0.01836,0.0299 -0.1091256,0.41695 -0.221744,0.86393 -0.112619,0.447 -0.2363162,0.82277 -0.249462,0.83606 -0.021537,0.0217 -0.9613153,-0.21515 -0.9978481,-0.25082 -0.00837,-0.008 0.072767,-0.4096 0.194026,-0.8918 l 0.221744,-0.86393 -0.166308,-0.0557 c -0.091639,-0.0342 -0.5817583,-0.15699 -1.0810021,-0.27868 -0.4992438,-0.12169 -0.914694,-0.249 -0.914694,-0.27869 0,-0.0297 0.1247013,-0.29245 0.249462,-0.58525 0.2492231,-0.58486 0.2027319,-0.58428 0.9701301,-0.47376 0.2916008,0.0418 0.4042659,0.0254 0.471206,-0.0557 0.087802,-0.10644 1.3304641,-4.97349 1.3304641,-5.21145 0,-0.23596 -0.3394748,-0.48018 -0.8315401,-0.58525 -0.3817358,-0.0815 -0.4726234,-0.12415 -0.443488,-0.22295 0.020279,-0.0688 0.088401,-0.31576 0.13859,-0.5295 0.050187,-0.21376 0.1124278,-0.41585 0.13859,-0.4459 0.026163,-0.03 0.5085596,0.0778 1.0810021,0.22295 0.632696,0.16058 1.0527431,0.2411 1.0810021,0.19508 0.02556,-0.0416 0.121105,-0.435 0.221744,-0.86393 0.100638,-0.42892 0.2166,-0.78777 0.249462,-0.80819 0.0093,-0.006 0.100161,0.0243 0.13859,0.0278 l 0,-1.69999 c -0.121259,5.6e-4 -0.238895,-0.004 -0.360334,0 z m 0.360334,5.60162 c -0.157717,0.64293 -0.33779,1.48444 -0.304898,1.50491 0.01941,0.012 0.190302,0.0506 0.304898,0.0836 l 0,-1.58852 z m -0.609796,2.61966 c -0.02971,0.005 -0.04964,0.011 -0.05544,0.0278 -0.03889,0.1131 -0.5543601,2.29719 -0.5543601,2.34097 0,0.0171 0.2527881,0.0929 0.5820781,0.16722 0.304379,0.0687 0.562896,0.14625 0.637514,0.16721 l 0,-2.59179 c -0.31044,-0.0807 -0.529756,-0.12485 -0.609796,-0.11148 z"
         id="path3892" />
      <path
         id="path2987"
         d="m 10.6232,236.97556 c -0.560489,0.0221 -1.1204158,0.0889 -1.5244901,0.19508 -2.1675568,0.56955 -3.8727532,1.83166 -4.9892404,3.70654 -1.1309158,1.89913 -1.4133714,4.37547 -0.748386,6.49342 0.908594,2.89383 3.327043,5.022 6.2919864,5.54587 0.3021032,0.0531 0.7415271,0.0887 1.3304641,0.0836 l 0,-2.17377 c -0.07252,0.27751 -0.174411,0.34 -0.41577,0.25082 -0.04249,-0.0157 -0.212174,-0.0661 -0.388052,-0.11147 l -0.3326161,-0.0836 0.2217441,-0.86393 c 0.120517,-0.47927 0.208634,-0.87709 0.194026,-0.8918 -0.06844,-0.0688 -0.8298194,-0.24306 -0.8592581,-0.19508 -0.01836,0.0299 -0.1091256,0.41695 -0.221744,0.86393 -0.112619,0.447 -0.2363162,0.82277 -0.249462,0.83606 -0.021537,0.0217 -0.9613153,-0.21515 -0.9978481,-0.25082 -0.00837,-0.008 0.072767,-0.4096 0.194026,-0.8918 l 0.221744,-0.86393 -0.166308,-0.0557 c -0.091639,-0.0342 -0.5817583,-0.15699 -1.0810021,-0.27868 -0.4992438,-0.12169 -0.914694,-0.249 -0.914694,-0.27869 0,-0.0297 0.1247013,-0.29245 0.249462,-0.58525 0.2492231,-0.58486 0.2027319,-0.58428 0.9701301,-0.47376 0.2916008,0.0418 0.4042659,0.0254 0.471206,-0.0557 0.087802,-0.10644 1.3304641,-4.97349 1.3304641,-5.21145 0,-0.23596 -0.3394748,-0.48018 -0.8315401,-0.58525 -0.3817358,-0.0815 -0.4726234,-0.12415 -0.443488,-0.22295 0.020279,-0.0688 0.088401,-0.31576 0.13859,-0.5295 0.050187,-0.21376 0.1124278,-0.41585 0.13859,-0.4459 0.026163,-0.03 0.5085596,0.0778 1.0810021,0.22295 0.632696,0.16058 1.0527431,0.2411 1.0810021,0.19508 0.02556,-0.0416 0.121105,-0.435 0.221744,-0.86393 0.100638,-0.42892 0.2166,-0.78777 0.249462,-0.80819 0.0093,-0.006 0.100161,0.0243 0.13859,0.0278 l 0,-1.69999 c -0.121259,5.6e-4 -0.238895,-0.004 -0.360334,0 z m 0.360334,5.60162 c -0.157717,0.64293 -0.33779,1.48444 -0.304898,1.50491 0.01941,0.012 0.190302,0.0506 0.304898,0.0836 l 0,-1.58852 z m -0.609796,2.61966 c -0.02971,0.005 -0.04964,0.011 -0.05544,0.0278 -0.03889,0.1131 -0.5543601,2.29719 -0.5543601,2.34097 0,0.0171 0.2527881,0.0929 0.5820781,0.16722 0.304379,0.0687 0.562896,0.14625 0.637514,0.16721 l 0,-2.59179 c -0.31044,-0.0807 -0.529756,-0.12485 -0.609796,-0.11148 z"
         style="fill:#dfdbd2;display:inline"
         inkscape:connector-curvature="0" />
    </g>
    <g
       id="g3896"
       style="opacity:0.4">
      <path
         inkscape:connector-curvature="0"
         style="display:inline;opacity:0.29999999999999999"
         d="m 10.983534,237.94785 0,1.69999 c 0.220416,0.0204 0.771207,0.13441 0.83154,0.19509 0.02273,0.0229 -0.05448,0.41488 -0.166308,0.86393 -0.111833,0.44903 -0.194026,0.81858 -0.194026,0.83606 0,0.0395 0.650742,0.22295 0.803822,0.22295 0.07759,0 0.157754,-0.26719 0.304898,-0.86393 0.172868,-0.70106 0.229735,-0.86674 0.332616,-0.83606 0.06918,0.0207 0.314198,0.0884 0.526642,0.13934 0.212443,0.0509 0.379626,0.10523 0.388052,0.11147 0.0083,0.005 -0.07105,0.40279 -0.194026,0.8918 -0.122977,0.48903 -0.23017,0.88824 -0.221744,0.8918 0.0083,0.004 0.250464,0.10747 0.526642,0.22295 0.671295,0.28068 1.214642,0.71624 1.441336,1.14262 0.162818,0.30611 0.193938,0.43122 0.166308,0.97541 -0.04419,0.87042 -0.344375,1.36174 -0.997848,1.64425 l -0.304898,0.13934 0.360334,0.27869 c 0.200956,0.14961 0.45555,0.41423 0.55436,0.58524 0.157996,0.27343 0.163559,0.39437 0.13859,0.97541 -0.03474,0.80832 -0.26865,1.36871 -0.776104,1.83934 -0.494415,0.45845 -0.995227,0.58372 -2.07885,0.5295 -0.468294,-0.0234 -0.910827,-0.0412 -0.97013,-0.0557 -0.07609,-0.0186 -0.145508,0.14599 -0.249462,0.55738 -0.08102,0.32062 -0.179843,0.70362 -0.221744,0.86393 l 0,2.17376 c 0.08115,-7e-4 0.133979,0.002 0.221744,0 0.887002,-0.0179 1.162963,-0.0629 1.66308,-0.19508 2.172697,-0.57427 3.87303,-1.83212 4.989241,-3.70654 1.130916,-1.89913 1.413371,-4.37546 0.748386,-6.49342 -0.925122,-2.94646 -3.373657,-5.09103 -6.402859,-5.57374 -0.355238,-0.0566 -0.781192,-0.0578 -1.219592,-0.0557 z m 0.194026,4.9049 c -0.02201,0.0221 -0.122203,0.40393 -0.194026,0.69672 l 0,1.58851 c 0.08582,0.0247 0.115459,0.0569 0.221744,0.0836 0.256097,0.0645 0.715956,0.0931 1.081002,0.0836 0.636018,-0.0164 0.653231,-0.0195 0.914694,-0.30656 0.2188,-0.24021 0.249462,-0.35289 0.249462,-0.64098 0,-0.27986 -0.02583,-0.3886 -0.221744,-0.61311 -0.134066,-0.15363 -0.370613,-0.36582 -0.526642,-0.4459 -0.250323,-0.12849 -1.481791,-0.48889 -1.52449,-0.4459 z m -0.194026,3.42785 0,2.59179 c 0.0061,0.002 0.05222,-8.9e-4 0.05544,0 0.04249,0.0143 0.318848,0.0243 0.637514,0.0278 0.684052,0.007 1.040399,-0.13439 1.302746,-0.52951 0.31506,-0.4745 0.16699,-1.02324 -0.388052,-1.44917 -0.339512,-0.26056 -0.670906,-0.38328 -1.52449,-0.61311 -0.03881,-0.0104 -0.04791,-0.0187 -0.08315,-0.0278 z"
         id="path3894" />
      <path
         id="path3005"
         d="m 10.983534,236.97556 0,1.69999 c 0.220416,0.0204 0.771207,0.13441 0.83154,0.19509 0.02273,0.0229 -0.05448,0.41488 -0.166308,0.86393 -0.111833,0.44903 -0.194026,0.81858 -0.194026,0.83606 0,0.0395 0.650742,0.22295 0.803822,0.22295 0.07759,0 0.157754,-0.26719 0.304898,-0.86393 0.172868,-0.70106 0.229735,-0.86674 0.332616,-0.83606 0.06918,0.0207 0.314198,0.0884 0.526642,0.13934 0.212443,0.0509 0.379626,0.10523 0.388052,0.11147 0.0083,0.005 -0.07105,0.40279 -0.194026,0.8918 -0.122977,0.48903 -0.23017,0.88824 -0.221744,0.8918 0.0083,0.004 0.250464,0.10747 0.526642,0.22295 0.671295,0.28068 1.214642,0.71624 1.441336,1.14262 0.162818,0.30611 0.193938,0.43122 0.166308,0.97541 -0.04419,0.87042 -0.344375,1.36174 -0.997848,1.64425 l -0.304898,0.13934 0.360334,0.27869 c 0.200956,0.14961 0.45555,0.41423 0.55436,0.58524 0.157996,0.27343 0.163559,0.39437 0.13859,0.97541 -0.03474,0.80832 -0.26865,1.36871 -0.776104,1.83934 -0.494415,0.45845 -0.995227,0.58372 -2.07885,0.5295 -0.468294,-0.0234 -0.910827,-0.0412 -0.97013,-0.0557 -0.07609,-0.0186 -0.145508,0.14599 -0.249462,0.55738 -0.08102,0.32062 -0.179843,0.70362 -0.221744,0.86393 l 0,2.17376 c 0.08115,-7e-4 0.133979,0.002 0.221744,0 0.887002,-0.0179 1.162963,-0.0629 1.66308,-0.19508 2.172697,-0.57427 3.87303,-1.83212 4.989241,-3.70654 1.130916,-1.89913 1.413371,-4.37546 0.748386,-6.49342 -0.925122,-2.94646 -3.373657,-5.09103 -6.402859,-5.57374 -0.355238,-0.0566 -0.781192,-0.0578 -1.219592,-0.0557 z m 0.194026,4.9049 c -0.02201,0.0221 -0.122203,0.40393 -0.194026,0.69672 l 0,1.58851 c 0.08582,0.0247 0.115459,0.0569 0.221744,0.0836 0.256097,0.0645 0.715956,0.0931 1.081002,0.0836 0.636018,-0.0164 0.653231,-0.0195 0.914694,-0.30656 0.2188,-0.24021 0.249462,-0.35289 0.249462,-0.64098 0,-0.27986 -0.02583,-0.3886 -0.221744,-0.61311 -0.134066,-0.15363 -0.370613,-0.36582 -0.526642,-0.4459 -0.250323,-0.12849 -1.481791,-0.48889 -1.52449,-0.4459 z m -0.194026,3.42785 0,2.59179 c 0.0061,0.002 0.05222,-8.9e-4 0.05544,0 0.04249,0.0143 0.318848,0.0243 0.637514,0.0278 0.684052,0.007 1.040399,-0.13439 1.302746,-0.52951 0.31506,-0.4745 0.16699,-1.02324 -0.388052,-1.44917 -0.339512,-0.26056 -0.670906,-0.38328 -1.52449,-0.61311 -0.03881,-0.0104 -0.04791,-0.0187 -0.08315,-0.0278 z"
         style="fill:#dfdbd2;display:inline"
         inkscape:connector-curvature="0" />
    </g>
  </g>
</svg>
