<?xml version="1.0" encoding="UTF-8" standalone="no"?>
<!-- Created with Inkscape (http://www.inkscape.org/) -->

<svg
   xmlns:dc="http://purl.org/dc/elements/1.1/"
   xmlns:cc="http://creativecommons.org/ns#"
   xmlns:rdf="http://www.w3.org/1999/02/22-rdf-syntax-ns#"
   xmlns:svg="http://www.w3.org/2000/svg"
   xmlns="http://www.w3.org/2000/svg"
   xmlns:sodipodi="http://sodipodi.sourceforge.net/DTD/sodipodi-0.dtd"
   xmlns:inkscape="http://www.inkscape.org/namespaces/inkscape"
   id="svg2"
   version="1.1"
   inkscape:version="0.48.3.1 r9886"
   width="22"
   height="22"
   sodipodi:docname="indicator-bitcoin.svg"
   inkscape:export-filename="/store/orion/projects/bitcoin/BC_Logo_icon32.png"
   inkscape:export-xdpi="11.25"
   inkscape:export-ydpi="11.25"
   style="display:inline">
  <defs
     id="defs3002" />
  <metadata
     id="metadata8">
    <rdf:RDF>
      <cc:Work
         rdf:about="">
        <dc:format>image/svg+xml</dc:format>
        <dc:type
           rdf:resource="http://purl.org/dc/dcmitype/StillImage" />
        <dc:title />
      </cc:Work>
    </rdf:RDF>
  </metadata>
  <sodipodi:namedview
     pagecolor="#ffffff"
     bordercolor="#666666"
     borderopacity="1"
     objecttolerance="10"
     gridtolerance="10"
     guidetolerance="10"
     inkscape:pageopacity="0"
     inkscape:pageshadow="2"
     inkscape:window-width="1275"
     inkscape:window-height="972"
     id="namedview4"
     showgrid="true"
     inkscape:zoom="16"
     inkscape:cx="-1.0456023"
     inkscape:cy="21.679267"
     inkscape:window-x="1447"
     inkscape:window-y="73"
     inkscape:window-maximized="0"
     inkscape:current-layer="layer1"
     inkscape:object-paths="false"
     inkscape:snap-nodes="false">
    <inkscape:grid
       type="xygrid"
       id="grid3778"
       empspacing="5"
       visible="true"
       enabled="true"
       snapvisiblegridlinesonly="true" />
  </sodipodi:namedview>
  <g
     inkscape:groupmode="layer"
     id="layer1"
     inkscape:label="Front"
     style="display:inline"
     transform="translate(0,-234)">
    <path
       inkscape:export-ydpi="11.98"
       inkscape:export-xdpi="11.98"
       sodipodi:nodetypes="sssssssssssscssssscsssscscssssssssssscscsssssssscscssssscssscssssssscsssssssss"
       inkscape:connector-curvature="0"
       id="path3004"
       d="m 9.6546799,253.92375 c -2.9715228,-0.52209 -5.39226,-2.64598 -6.3028703,-5.52996 -0.6664611,-2.11073 -0.3796342,-4.56975 0.7537912,-6.46241 1.1189648,-1.8685 2.8441518,-3.14544 5.0165186,-3.71305 0.809941,-0.21164 2.1973996,-0.2662 3.1064036,-0.12216 3.035923,0.48107 5.496804,2.60318 6.423978,5.53961 0.66646,2.11074 0.379634,4.56975 -0.753793,6.46242 -1.118687,1.86804 -2.838999,3.14167 -5.016516,3.71397 -0.501227,0.13174 -0.77235,0.1609 -1.661319,0.17877 -0.72634,0.0147 -1.2217017,-0.008 -1.5661931,-0.0673 z m 1.3433031,-2.08852 c 0.042,-0.15976 0.142783,-0.55191 0.223974,-0.87145 0.104184,-0.40998 0.179422,-0.57321 0.255684,-0.55467 0.05944,0.0145 0.492059,0.0455 0.961393,0.0687 1.086028,0.054 1.597514,-0.0763 2.093027,-0.53324 0.508579,-0.46902 0.752563,-1.04131 0.787382,-1.84688 0.02503,-0.57906 0.0068,-0.69576 -0.15159,-0.96825 -0.09903,-0.17043 -0.344835,-0.43186 -0.546236,-0.58096 l -0.366188,-0.2711 0.291037,-0.12514 c 0.654922,-0.28155 0.963716,-0.78902 1.008007,-1.65648 0.02769,-0.54233 0.0085,-0.66321 -0.154735,-0.96827 -0.227197,-0.42492 -0.779827,-0.85763 -1.45261,-1.13735 -0.276792,-0.11509 -0.510124,-0.21231 -0.518517,-0.21609 -0.0085,-0.004 0.08557,-0.40558 0.20882,-0.89294 0.123244,-0.48734 0.217215,-0.89072 0.208822,-0.89637 -0.0085,-0.007 -0.189465,-0.052 -0.402381,-0.10268 -0.212915,-0.0508 -0.443852,-0.10925 -0.513195,-0.12984 -0.103109,-0.0306 -0.164662,0.11815 -0.337914,0.81683 -0.14747,0.59471 -0.245779,0.8543 -0.323539,0.8543 -0.153421,0 -0.79966,-0.16584 -0.79966,-0.20521 0,-0.0174 0.0917,-0.39804 0.203787,-0.84554 0.112082,-0.44753 0.185147,-0.83232 0.162365,-0.85511 -0.07101,-0.0711 -0.90978,-0.27117 -0.97291,-0.23214 -0.03293,0.0203 -0.142411,0.38678 -0.243273,0.81424 -0.100861,0.42747 -0.204351,0.81115 -0.229972,0.85263 -0.02832,0.0458 -0.4556031,-0.0278 -1.0897032,-0.18776 -0.5737128,-0.14473 -1.0645683,-0.2387 -1.0907894,-0.20882 -0.02622,0.0299 -0.088829,0.22865 -0.1391277,0.44168 -0.0503,0.21301 -0.1080806,0.44337 -0.1284043,0.51191 -0.0292,0.0984 0.064646,0.14618 0.4472288,0.22739 0.4931572,0.10471 0.8355082,0.34066 0.8355082,0.57581 0,0.23715 -1.2497344,5.11149 -1.3377313,5.21756 -0.067088,0.0808 -0.1869069,0.0939 -0.4791547,0.0521 -0.7691011,-0.11012 -0.7255258,-0.13035 -0.975302,0.45253 -0.1250375,0.2918 -0.2273424,0.55476 -0.2273424,0.58438 0,0.0296 0.4093788,0.15305 0.9097305,0.27432 0.5003517,0.12128 0.984874,0.24837 1.0767166,0.28241 l 0.1669866,0.0617 -0.2209595,0.87374 c -0.1215276,0.48056 -0.2140919,0.88041 -0.2056989,0.88857 0.036614,0.0356 1.0025605,0.26733 1.024145,0.24572 0.013175,-0.0133 0.1163051,-0.38845 0.2291741,-0.83394 0.1128682,-0.44546 0.2202678,-0.83432 0.2386654,-0.86411 0.029504,-0.0478 0.7813162,0.11231 0.8499062,0.18093 0.01465,0.0147 -0.07222,0.41741 -0.193002,0.89504 l -0.2196083,0.86839 0.3204833,0.0824 c 0.176267,0.0453 0.355324,0.0951 0.397908,0.11075 0.241895,0.0888 0.346113,0.0267 0.418793,-0.24981 z m 0.04575,-2.92329 c -0.04258,-0.0141 -0.34744,-0.0863 -0.677458,-0.16039 -0.33002,-0.0741 -0.6000357,-0.14874 -0.6000357,-0.16585 0,-0.0437 0.5401867,-2.21048 0.5791657,-2.32318 0.02328,-0.0674 0.221184,-0.0418 0.729854,0.0945 0.855479,0.22906 1.198464,0.36925 1.538731,0.62892 0.556273,0.42447 0.69891,0.95667 0.383151,1.42955 -0.262929,0.39377 -0.609735,0.53516 -1.295305,0.52809 -0.319373,-0.004 -0.615519,-0.0175 -0.658103,-0.0317 z m 0.167105,-3.64414 c -0.248755,-0.0622 -0.480116,-0.13043 -0.514133,-0.15146 -0.04797,-0.0297 0.420563,-2.11425 0.491057,-2.18476 0.0428,-0.0428 1.27103,0.31366 1.521909,0.4417 0.156375,0.0798 0.394251,0.27038 0.528615,0.42349 0.196353,0.22375 0.244296,0.34648 0.244296,0.6254 0,0.2871 -0.04574,0.39695 -0.265031,0.63635 -0.262042,0.28607 -0.272301,0.28953 -0.90973,0.30591 -0.365856,0.009 -0.840317,-0.0324 -1.096983,-0.0966 z"
       style="display:inline;opacity:0.3" />
    <path
       style="fill:#dfdbd2;display:inline"
       d="m 9.6546799,252.92375 c -2.9715228,-0.52209 -5.39226,-2.64598 -6.3028703,-5.52996 -0.6664611,-2.11073 -0.3796342,-4.56975 0.7537912,-6.46241 1.1189648,-1.8685 2.8441518,-3.14544 5.0165186,-3.71305 0.809941,-0.21164 2.1973996,-0.2662 3.1064036,-0.12216 3.035923,0.48107 5.496804,2.60318 6.423978,5.53961 0.66646,2.11074 0.379634,4.56975 -0.753793,6.46242 -1.118687,1.86804 -2.838999,3.14167 -5.016516,3.71397 -0.501227,0.13174 -0.77235,0.1609 -1.661319,0.17877 -0.72634,0.0147 -1.2217017,-0.008 -1.5661931,-0.0673 z m 1.3433031,-2.08852 c 0.042,-0.15976 0.142783,-0.55191 0.223974,-0.87145 0.104184,-0.40998 0.179422,-0.57321 0.255684,-0.55467 0.05944,0.0145 0.492059,0.0455 0.961393,0.0687 1.086028,0.054 1.597514,-0.0763 2.093027,-0.53324 0.508579,-0.46902 0.752563,-1.04131 0.787382,-1.84688 0.02503,-0.57906 0.0068,-0.69576 -0.15159,-0.96825 -0.09903,-0.17043 -0.344835,-0.43186 -0.546236,-0.58096 l -0.366188,-0.2711 0.291037,-0.12514 c 0.654922,-0.28155 0.963716,-0.78902 1.008007,-1.65648 0.02769,-0.54233 0.0085,-0.66321 -0.154735,-0.96827 -0.227197,-0.42492 -0.779827,-0.85763 -1.45261,-1.13735 -0.276792,-0.11509 -0.510124,-0.21231 -0.518517,-0.21609 -0.0085,-0.004 0.08557,-0.40558 0.20882,-0.89294 0.123244,-0.48734 0.217215,-0.89072 0.208822,-0.89637 -0.0085,-0.007 -0.189465,-0.052 -0.402381,-0.10268 -0.212915,-0.0508 -0.443852,-0.10925 -0.513195,-0.12984 -0.103109,-0.0306 -0.164662,0.11815 -0.337914,0.81683 -0.14747,0.59471 -0.245779,0.8543 -0.323539,0.8543 -0.153421,0 -0.79966,-0.16584 -0.79966,-0.20521 0,-0.0174 0.0917,-0.39804 0.203787,-0.84554 0.112082,-0.44753 0.185147,-0.83232 0.162365,-0.85511 -0.07101,-0.0711 -0.90978,-0.27117 -0.97291,-0.23214 -0.03293,0.0203 -0.142411,0.38678 -0.243273,0.81424 -0.100861,0.42747 -0.204351,0.81115 -0.229972,0.85263 -0.02832,0.0458 -0.4556031,-0.0278 -1.0897032,-0.18776 -0.5737128,-0.14473 -1.0645683,-0.2387 -1.0907894,-0.20882 -0.02622,0.0299 -0.088829,0.22865 -0.1391277,0.44168 -0.0503,0.21301 -0.1080806,0.44337 -0.1284043,0.51191 -0.0292,0.0984 0.064646,0.14618 0.4472288,0.22739 0.4931572,0.10471 0.8355082,0.34066 0.8355082,0.57581 0,0.23715 -1.2497344,5.11149 -1.3377313,5.21756 -0.067088,0.0808 -0.1869069,0.0939 -0.4791547,0.0521 -0.7691011,-0.11012 -0.7255258,-0.13035 -0.975302,0.45253 -0.1250375,0.2918 -0.2273424,0.55476 -0.2273424,0.58438 0,0.0296 0.4093788,0.15305 0.9097305,0.27432 0.5003517,0.12128 0.984874,0.24837 1.0767166,0.28241 l 0.1669866,0.0617 -0.2209595,0.87374 c -0.1215276,0.48056 -0.2140919,0.88041 -0.2056989,0.88857 0.036614,0.0356 1.0025605,0.26733 1.024145,0.24572 0.013175,-0.0133 0.1163051,-0.38845 0.2291741,-0.83394 0.1128682,-0.44546 0.2202678,-0.83432 0.2386654,-0.86411 0.029504,-0.0478 0.7813162,0.11231 0.8499062,0.18093 0.01465,0.0147 -0.07222,0.41741 -0.193002,0.89504 l -0.2196083,0.86839 0.3204833,0.0824 c 0.176267,0.0453 0.355324,0.0951 0.397908,0.11075 0.241895,0.0888 0.346113,0.0267 0.418793,-0.24981 z m 0.04575,-2.92329 c -0.04258,-0.0141 -0.34744,-0.0863 -0.677458,-0.16039 -0.33002,-0.0741 -0.6000357,-0.14874 -0.6000357,-0.16585 0,-0.0437 0.5401867,-2.21048 0.5791657,-2.32318 0.02328,-0.0674 0.221184,-0.0418 0.729854,0.0945 0.855479,0.22906 1.198464,0.36925 1.538731,0.62892 0.556273,0.42447 0.69891,0.95667 0.383151,1.42955 -0.262929,0.39377 -0.609735,0.53516 -1.295305,0.52809 -0.319373,-0.004 -0.615519,-0.0175 -0.658103,-0.0317 z m 0.167105,-3.64414 c -0.248755,-0.0622 -0.480116,-0.13043 -0.514133,-0.15146 -0.04797,-0.0297 0.420563,-2.11425 0.491057,-2.18476 0.0428,-0.0428 1.27103,0.31366 1.521909,0.4417 0.156375,0.0798 0.394251,0.27038 0.528615,0.42349 0.196353,0.22375 0.244296,0.34648 0.244296,0.6254 0,0.2871 -0.04574,0.39695 -0.265031,0.63635 -0.262042,0.28607 -0.272301,0.28953 -0.90973,0.30591 -0.365856,0.009 -0.840317,-0.0324 -1.096983,-0.0966 z"
       id="path2987"
       inkscape:connector-curvature="0"
       sodipodi:nodetypes="sssssssssssscssssscsssscscssssssssssscscsssssssscscssssscssscssssssscsssssssss"
       inkscape:export-xdpi="11.98"
       inkscape:export-ydpi="11.98" />
  </g>
</svg>
