<?xml version="1.0" encoding="UTF-8" standalone="no"?>
<!-- Created with Inkscape (http://www.inkscape.org/) -->

<svg
   xmlns:dc="http://purl.org/dc/elements/1.1/"
   xmlns:cc="http://creativecommons.org/ns#"
   xmlns:rdf="http://www.w3.org/1999/02/22-rdf-syntax-ns#"
   xmlns:svg="http://www.w3.org/2000/svg"
   xmlns="http://www.w3.org/2000/svg"
   xmlns:sodipodi="http://sodipodi.sourceforge.net/DTD/sodipodi-0.dtd"
   xmlns:inkscape="http://www.inkscape.org/namespaces/inkscape"
   id="svg2"
   version="1.1"
   inkscape:version="0.48.3.1 r9886"
   width="22"
   height="16"
   sodipodi:docname="indicator-bitcoin-connecting.svg"
   inkscape:export-filename="/store/orion/projects/bitcoin/BC_Logo_icon32.png"
   inkscape:export-xdpi="11.25"
   inkscape:export-ydpi="11.25"
   style="display:inline">
  <defs
     id="defs9" />
  <metadata
     id="metadata8">
    <rdf:RDF>
      <cc:Work
         rdf:about="">
        <dc:format>image/svg+xml</dc:format>
        <dc:type
           rdf:resource="http://purl.org/dc/dcmitype/StillImage" />
        <dc:title></dc:title>
      </cc:Work>
    </rdf:RDF>
  </metadata>
  <sodipodi:namedview
     pagecolor="#ffffff"
     bordercolor="#666666"
     borderopacity="1"
     objecttolerance="10"
     gridtolerance="10"
     guidetolerance="10"
     inkscape:pageopacity="0"
     inkscape:pageshadow="2"
     inkscape:window-width="1275"
     inkscape:window-height="972"
     id="namedview4"
     showgrid="true"
     inkscape:zoom="11.313708"
     inkscape:cx="12.073901"
     inkscape:cy="10.648336"
     inkscape:window-x="1495"
     inkscape:window-y="86"
     inkscape:window-maximized="0"
     inkscape:current-layer="layer1"
     inkscape:object-paths="false"
     inkscape:snap-nodes="false">
    <inkscape:grid
       type="xygrid"
       id="grid3778"
       empspacing="5"
       visible="true"
       enabled="true"
       snapvisiblegridlinesonly="true" />
  </sodipodi:namedview>
  <g
     inkscape:groupmode="layer"
     id="layer1"
     inkscape:label="Front"
     style="display:inline"
     transform="translate(0,-240)">
    <g
       id="g3931">
      <path
         inkscape:connector-curvature="0"
         style="display:inline;opacity:0.3"
         d="m 10.747014,243.00601 c -0.417577,0.0165 -0.8347347,0.0662 -1.1357797,0.14534 -1.61488,0.42433 -2.8852906,1.36463 -3.7170993,2.76146 -0.8425583,1.4149 -1.0529943,3.25983 -0.5575648,4.83775 0.6769235,2.15597 2.4787237,3.7415 4.6876748,4.1318 0.225074,0.0396 0.552455,0.0661 0.991226,0.0623 l 0,-1.61951 c -0.05403,0.20676 -0.12994,0.25331 -0.309758,0.18687 -0.03166,-0.0117 -0.158075,-0.0493 -0.289108,-0.0831 l -0.247806,-0.0623 0.165204,-0.64365 c 0.08979,-0.35707 0.155437,-0.65345 0.144554,-0.66441 -0.05099,-0.0513 -0.6182347,-0.18109 -0.6401667,-0.14534 -0.01368,0.0223 -0.0813,0.31064 -0.165205,0.64365 -0.0839,0.33302 -0.176061,0.61298 -0.185854,0.62288 -0.01605,0.0162 -0.716203,-0.16029 -0.74342,-0.18686 -0.0062,-0.006 0.05421,-0.30517 0.144554,-0.66442 l 0.165204,-0.64364 -0.123903,-0.0415 c -0.06827,-0.0255 -0.433424,-0.11696 -0.805372,-0.20762 -0.371948,-0.0907 -0.681468,-0.18552 -0.681468,-0.20763 0,-0.0221 0.092905,-0.21789 0.185855,-0.43603 0.1856769,-0.43573 0.1510399,-0.4353 0.722769,-0.35296 0.21725,0.0311 0.301188,0.0189 0.35106,-0.0415 0.06541,-0.0793 0.991226,-3.70536 0.991226,-3.88265 0,-0.1758 -0.252917,-0.35775 -0.619517,-0.43602 -0.284401,-0.0607 -0.352115,-0.0925 -0.330408,-0.16611 0.01511,-0.0513 0.06586,-0.23525 0.103252,-0.39449 0.03739,-0.15925 0.08376,-0.30982 0.103253,-0.3322 0.01949,-0.0223 0.378889,0.058 0.805372,0.1661 0.4713727,0.11964 0.7843177,0.17962 0.8053707,0.14534 0.01904,-0.031 0.09023,-0.32409 0.165205,-0.64365 0.07498,-0.31955 0.161372,-0.58691 0.185855,-0.60212 0.0069,-0.004 0.07462,0.0181 0.103252,0.0207 l 0,-1.26653 c -0.09034,4.2e-4 -0.177982,-0.003 -0.268457,0 z m 0.268457,4.17334 c -0.117503,0.479 -0.251661,1.10594 -0.227156,1.12119 0.01446,0.009 0.14178,0.0377 0.227156,0.0623 l 0,-1.18349 z m -0.454312,1.95171 c -0.02213,0.004 -0.03698,0.008 -0.0413,0.0207 -0.02897,0.0843 -0.413011,1.71146 -0.413011,1.74407 0,0.0127 0.188333,0.0692 0.433662,0.12459 0.226769,0.0512 0.41937,0.10896 0.474962,0.12457 l 0,-1.93094 c -0.231285,-0.0601 -0.39468,-0.093 -0.454312,-0.0831 z"
         id="path3923" />
      <path
         id="path2987"
         d="m 10.747014,242.03372 c -0.417577,0.0165 -0.8347347,0.0662 -1.1357797,0.14534 -1.61488,0.42433 -2.8852906,1.36463 -3.7170993,2.76146 -0.8425583,1.4149 -1.0529943,3.25983 -0.5575648,4.83775 0.6769235,2.15597 2.4787237,3.7415 4.6876748,4.1318 0.225074,0.0396 0.552455,0.0661 0.991226,0.0623 l 0,-1.61951 c -0.05403,0.20676 -0.12994,0.25331 -0.309758,0.18687 -0.03166,-0.0117 -0.158075,-0.0493 -0.289108,-0.0831 l -0.247806,-0.0623 0.165204,-0.64365 c 0.08979,-0.35707 0.155437,-0.65345 0.144554,-0.66441 -0.05099,-0.0513 -0.6182347,-0.18109 -0.6401667,-0.14534 -0.01368,0.0223 -0.0813,0.31064 -0.165205,0.64365 -0.0839,0.33302 -0.176061,0.61298 -0.185854,0.62288 -0.01605,0.0162 -0.716203,-0.16029 -0.74342,-0.18686 -0.0062,-0.006 0.05421,-0.30517 0.144554,-0.66442 l 0.165204,-0.64364 -0.123903,-0.0415 c -0.06827,-0.0255 -0.433424,-0.11696 -0.805372,-0.20762 -0.371948,-0.0907 -0.681468,-0.18552 -0.681468,-0.20763 0,-0.0221 0.092905,-0.21789 0.185855,-0.43603 0.1856769,-0.43573 0.1510399,-0.4353 0.722769,-0.35296 0.21725,0.0311 0.301188,0.0189 0.35106,-0.0415 0.06541,-0.0793 0.991226,-3.70536 0.991226,-3.88265 0,-0.1758 -0.252917,-0.35775 -0.619517,-0.43602 -0.284401,-0.0607 -0.352115,-0.0925 -0.330408,-0.16611 0.01511,-0.0513 0.06586,-0.23525 0.103252,-0.39449 0.03739,-0.15925 0.08376,-0.30982 0.103253,-0.3322 0.01949,-0.0223 0.378889,0.058 0.805372,0.1661 0.4713727,0.11964 0.7843177,0.17962 0.8053707,0.14534 0.01904,-0.031 0.09023,-0.32409 0.165205,-0.64365 0.07498,-0.31955 0.161372,-0.58691 0.185855,-0.60212 0.0069,-0.004 0.07462,0.0181 0.103252,0.0207 l 0,-1.26653 c -0.09034,4.2e-4 -0.177982,-0.003 -0.268457,0 z m 0.268457,4.17334 c -0.117503,0.479 -0.251661,1.10594 -0.227156,1.12119 0.01446,0.009 0.14178,0.0377 0.227156,0.0623 l 0,-1.18349 z m -0.454312,1.95171 c -0.02213,0.004 -0.03698,0.008 -0.0413,0.0207 -0.02897,0.0843 -0.413011,1.71146 -0.413011,1.74407 0,0.0127 0.188333,0.0692 0.433662,0.12459 0.226769,0.0512 0.41937,0.10896 0.474962,0.12457 l 0,-1.93094 c -0.231285,-0.0601 -0.39468,-0.093 -0.454312,-0.0831 z"
         style="fill:#dfdbd2;display:inline"
         inkscape:connector-curvature="0" />
    </g>
    <g
       id="g3927"
       style="opacity:0.4">
      <path
         inkscape:connector-curvature="0"
         style="display:inline;opacity:0.29999999999999999"
         d="m 11.015471,243.00601 0,1.26654 c 0.164215,0.0152 0.574567,0.10013 0.619517,0.14534 0.01693,0.0171 -0.04059,0.3091 -0.123904,0.64365 -0.08332,0.33454 -0.144553,0.60986 -0.144553,0.62288 0,0.0294 0.484817,0.16611 0.598866,0.16611 0.05781,0 0.11753,-0.19907 0.227156,-0.64365 0.12879,-0.52231 0.171157,-0.64574 0.247806,-0.62289 0.05154,0.0154 0.234085,0.0659 0.392361,0.10382 0.158275,0.0379 0.28283,0.0784 0.289107,0.083 0.0062,0.004 -0.05293,0.30009 -0.144554,0.66442 -0.09162,0.36433 -0.171482,0.66175 -0.165204,0.66441 0.0062,0.003 0.186601,0.0801 0.39236,0.1661 0.500131,0.20911 0.904937,0.53362 1.073829,0.85128 0.121303,0.22806 0.144488,0.32127 0.123903,0.7267 -0.03292,0.64848 -0.256567,1.01453 -0.743419,1.22501 l -0.227157,0.10381 0.268458,0.20763 c 0.149716,0.11146 0.339395,0.30861 0.413011,0.43601 0.11771,0.20372 0.121855,0.29382 0.103252,0.72671 -0.02588,0.60221 -0.20015,1.01972 -0.578215,1.37035 -0.368351,0.34155 -0.741467,0.43488 -1.548791,0.39449 -0.34889,-0.0174 -0.678587,-0.0307 -0.722769,-0.0415 -0.05669,-0.0139 -0.108407,0.10877 -0.185855,0.41526 -0.06036,0.23887 -0.133988,0.52421 -0.165205,0.64365 l 0,1.6195 c 0.06046,-5.2e-4 0.09982,0.001 0.165205,0 0.660837,-0.0133 0.866434,-0.0469 1.239033,-0.14534 1.618709,-0.42784 2.885496,-1.36497 3.717099,-2.76146 0.842559,-1.41489 1.052994,-3.25982 0.557565,-4.83774 -0.689237,-2.19519 -2.513452,-3.79294 -4.770278,-4.15257 -0.26466,-0.0422 -0.582006,-0.0431 -0.908624,-0.0415 z m 0.144554,3.65427 c -0.0164,0.0165 -0.09104,0.30093 -0.144554,0.51907 l 0,1.18348 c 0.06394,0.0184 0.08602,0.0424 0.165205,0.0623 0.190798,0.048 0.533403,0.0694 0.805371,0.0623 0.473848,-0.0122 0.486672,-0.0145 0.681468,-0.22839 0.163011,-0.17896 0.185855,-0.26291 0.185855,-0.47755 0,-0.2085 -0.01924,-0.28951 -0.165204,-0.45678 -0.09988,-0.11445 -0.276116,-0.27254 -0.392361,-0.3322 -0.186496,-0.0957 -1.103968,-0.36424 -1.13578,-0.33221 z m -0.144554,2.55382 0,1.93095 c 0.0045,0.001 0.0389,-6.7e-4 0.0413,0 0.03166,0.0106 0.237549,0.0181 0.474963,0.0207 0.509634,0.005 0.775121,-0.10012 0.970576,-0.3945 0.234727,-0.35351 0.124411,-0.76234 -0.289108,-1.07966 -0.252944,-0.19413 -0.49984,-0.28556 -1.13578,-0.45678 -0.02891,-0.008 -0.03569,-0.0139 -0.06195,-0.0207 z"
         id="path3925" />
      <path
         id="path3005"
         d="m 11.015471,242.03372 0,1.26654 c 0.164215,0.0152 0.574567,0.10013 0.619517,0.14534 0.01693,0.0171 -0.04059,0.3091 -0.123904,0.64365 -0.08332,0.33454 -0.144553,0.60986 -0.144553,0.62288 0,0.0294 0.484817,0.16611 0.598866,0.16611 0.05781,0 0.11753,-0.19907 0.227156,-0.64365 0.12879,-0.52231 0.171157,-0.64574 0.247806,-0.62289 0.05154,0.0154 0.234085,0.0659 0.392361,0.10382 0.158275,0.0379 0.28283,0.0784 0.289107,0.083 0.0062,0.004 -0.05293,0.30009 -0.144554,0.66442 -0.09162,0.36433 -0.171482,0.66175 -0.165204,0.66441 0.0062,0.003 0.186601,0.0801 0.39236,0.1661 0.500131,0.20911 0.904937,0.53362 1.073829,0.85128 0.121303,0.22806 0.144488,0.32127 0.123903,0.7267 -0.03292,0.64848 -0.256567,1.01453 -0.743419,1.22501 l -0.227157,0.10381 0.268458,0.20763 c 0.149716,0.11146 0.339395,0.30861 0.413011,0.43601 0.11771,0.20372 0.121855,0.29382 0.103252,0.72671 -0.02588,0.60221 -0.20015,1.01972 -0.578215,1.37035 -0.368351,0.34155 -0.741467,0.43488 -1.548791,0.39449 -0.34889,-0.0174 -0.678587,-0.0307 -0.722769,-0.0415 -0.05669,-0.0139 -0.108407,0.10877 -0.185855,0.41526 -0.06036,0.23887 -0.133988,0.52421 -0.165205,0.64365 l 0,1.6195 c 0.06046,-5.2e-4 0.09982,0.001 0.165205,0 0.660837,-0.0133 0.866434,-0.0469 1.239033,-0.14534 1.618709,-0.42784 2.885496,-1.36497 3.717099,-2.76146 0.842559,-1.41489 1.052994,-3.25982 0.557565,-4.83774 -0.689237,-2.19519 -2.513452,-3.79294 -4.770278,-4.15257 -0.26466,-0.0422 -0.582006,-0.0431 -0.908624,-0.0415 z m 0.144554,3.65427 c -0.0164,0.0165 -0.09104,0.30093 -0.144554,0.51907 l 0,1.18348 c 0.06394,0.0184 0.08602,0.0424 0.165205,0.0623 0.190798,0.048 0.533403,0.0694 0.805371,0.0623 0.473848,-0.0122 0.486672,-0.0145 0.681468,-0.22839 0.163011,-0.17896 0.185855,-0.26291 0.185855,-0.47755 0,-0.2085 -0.01924,-0.28951 -0.165204,-0.45678 -0.09988,-0.11445 -0.276116,-0.27254 -0.392361,-0.3322 -0.186496,-0.0957 -1.103968,-0.36424 -1.13578,-0.33221 z m -0.144554,2.55382 0,1.93095 c 0.0045,10e-4 0.0389,-6.7e-4 0.0413,0 0.03166,0.0106 0.237549,0.0181 0.474963,0.0207 0.509634,0.005 0.775121,-0.10012 0.970576,-0.3945 0.234727,-0.35351 0.124411,-0.76234 -0.289108,-1.07966 -0.252944,-0.19413 -0.49984,-0.28556 -1.13578,-0.45678 -0.02891,-0.008 -0.03569,-0.0139 -0.06195,-0.0207 z"
         style="fill:#dfdbd2;display:inline"
         inkscape:connector-curvature="0" />
    </g>
  </g>
</svg>
