<?xml version="1.0" encoding="UTF-8" standalone="no"?>
<!-- Created with Inkscape (http://www.inkscape.org/) -->

<svg
   xmlns:dc="http://purl.org/dc/elements/1.1/"
   xmlns:cc="http://creativecommons.org/ns#"
   xmlns:rdf="http://www.w3.org/1999/02/22-rdf-syntax-ns#"
   xmlns:svg="http://www.w3.org/2000/svg"
   xmlns="http://www.w3.org/2000/svg"
   xmlns:sodipodi="http://sodipodi.sourceforge.net/DTD/sodipodi-0.dtd"
   xmlns:inkscape="http://www.inkscape.org/namespaces/inkscape"
   id="svg2"
   version="1.1"
   inkscape:version="0.48.3.1 r9886"
   width="24"
   height="24"
   sodipodi:docname="indicator-bitcoin.svg"
   inkscape:export-filename="/store/orion/projects/bitcoin/BC_Logo_icon32.png"
   inkscape:export-xdpi="11.25"
   inkscape:export-ydpi="11.25"
   style="display:inline">
  <defs
     id="defs9" />
  <metadata
     id="metadata8">
    <rdf:RDF>
      <cc:Work
         rdf:about="">
        <dc:format>image/svg+xml</dc:format>
        <dc:type
           rdf:resource="http://purl.org/dc/dcmitype/StillImage" />
        <dc:title></dc:title>
      </cc:Work>
    </rdf:RDF>
  </metadata>
  <sodipodi:namedview
     pagecolor="#ffffff"
     bordercolor="#666666"
     borderopacity="1"
     objecttolerance="10"
     gridtolerance="10"
     guidetolerance="10"
     inkscape:pageopacity="0"
     inkscape:pageshadow="2"
     inkscape:window-width="1275"
     inkscape:window-height="972"
     id="namedview4"
     showgrid="true"
     inkscape:zoom="5.6568542"
     inkscape:cx="19.534733"
     inkscape:cy="2.6979526"
     inkscape:window-x="1411"
     inkscape:window-y="75"
     inkscape:window-maximized="0"
     inkscape:current-layer="layer1"
     inkscape:object-paths="false"
     inkscape:snap-nodes="false">
    <inkscape:grid
       type="xygrid"
       id="grid3778"
       empspacing="5"
       visible="true"
       enabled="true"
       snapvisiblegridlinesonly="true" />
  </sodipodi:namedview>
  <g
     inkscape:groupmode="layer"
     id="layer1"
     inkscape:label="Front"
     style="display:inline"
     transform="translate(0,-232)">
    <g
       id="g3789">
      <path
         inkscape:connector-curvature="0"
         style="display:inline;opacity:0.29999999999999999"
         d="m 11.59375,236.03125 c -0.63191,0.0248 -1.263186,0.0997 -1.71875,0.21875 -2.4437602,0.63865 -4.3662432,2.05389 -5.625,4.15625 -1.275024,2.12954 -1.5934719,4.90634 -0.84375,7.28125 1.0243727,3.24494 3.7509953,5.63132 7.09375,6.21875 0.340599,0.0595 0.836017,0.0995 1.5,0.0937 l 0,-2.4375 c -0.08176,0.31117 -0.196635,0.38125 -0.46875,0.28125 -0.0479,-0.0176 -0.239211,-0.0741 -0.4375,-0.125 l -0.375,-0.0937 0.25,-0.96875 c 0.135874,-0.53741 0.23522,-0.9835 0.21875,-1 -0.07716,-0.0772 -0.93556,-0.27255 -0.96875,-0.21875 -0.0207,0.0335 -0.123031,0.46754 -0.25,0.96875 -0.1269696,0.50124 -0.266429,0.9226 -0.28125,0.9375 -0.024281,0.0243 -1.083812,-0.24125 -1.125,-0.28125 -0.00944,-0.009 0.08204,-0.4593 0.21875,-1 l 0.25,-0.96875 -0.1875,-0.0625 c -0.1033164,-0.0383 -0.6558895,-0.17604 -1.21875,-0.3125 -0.5628605,-0.13645 -1.03125,-0.2792 -1.03125,-0.3125 0,-0.0333 0.1405915,-0.32793 0.28125,-0.65625 0.2809806,-0.65583 0.2285653,-0.65517 1.09375,-0.53125 0.3287584,0.0469 0.45578,0.0285 0.53125,-0.0625 0.09899,-0.11935 1.5,-5.57692 1.5,-5.84375 0,-0.26459 -0.3827328,-0.53844 -0.9375,-0.65625 -0.430379,-0.0914 -0.532848,-0.13922 -0.5,-0.25 0.022863,-0.0771 0.099666,-0.35408 0.15625,-0.59375 0.056582,-0.23969 0.126754,-0.4663 0.15625,-0.5 0.029497,-0.0336 0.5733634,0.0872 1.21875,0.25 0.713318,0.18006 1.18689,0.27035 1.21875,0.21875 0.02882,-0.0467 0.136537,-0.48778 0.25,-0.96875 0.113462,-0.48096 0.2442,-0.88335 0.28125,-0.90625 0.01054,-0.007 0.112924,0.0273 0.15625,0.0312 l 0,-1.90625 c -0.136711,6.3e-4 -0.269336,-0.005 -0.40625,0 z M 12,242.3125 c -0.177814,0.72094 -0.380833,1.66455 -0.34375,1.6875 0.02188,0.0135 0.214551,0.0567 0.34375,0.0937 l 0,-1.78125 z m -0.6875,2.9375 c -0.0335,0.006 -0.05596,0.0123 -0.0625,0.0312 -0.04385,0.12682 -0.625,2.5759 -0.625,2.625 0,0.0192 0.285,0.1042 0.65625,0.1875 0.343165,0.077 0.634624,0.164 0.71875,0.1875 l 0,-2.90625 c -0.349998,-0.0905 -0.597261,-0.13999 -0.6875,-0.125 z"
         id="path3013" />
      <path
         id="path2987"
         transform="translate(0,232)"
         d="M 11.59375 3.03125 C 10.96184 3.0561038 10.330564 3.13093 9.875 3.25 C 7.4312398 3.88865 5.5087568 5.30389 4.25 7.40625 C 2.974976 9.53579 2.6565281 12.31259 3.40625 14.6875 C 4.4306227 17.93244 7.1572453 20.31882 10.5 20.90625 C 10.840599 20.965751 11.336017 21.005746 12 21 L 12 18.5625 C 11.91824 18.87367 11.803365 18.94375 11.53125 18.84375 C 11.483348 18.82615 11.292039 18.76965 11.09375 18.71875 L 10.71875 18.625 L 10.96875 17.65625 C 11.104624 17.11884 11.20397 16.67275 11.1875 16.65625 C 11.11034 16.57904 10.25194 16.3837 10.21875 16.4375 C 10.198054 16.47101 10.095719 16.90504 9.96875 17.40625 C 9.8417804 17.90749 9.702321 18.32885 9.6875 18.34375 C 9.6632189 18.36806 8.603688 18.1025 8.5625 18.0625 C 8.5530586 18.05332 8.64454 17.6032 8.78125 17.0625 L 9.03125 16.09375 L 8.84375 16.03125 C 8.7404336 15.99294 8.1878605 15.85521 7.625 15.71875 C 7.0621395 15.5823 6.59375 15.43955 6.59375 15.40625 C 6.59375 15.37293 6.7343415 15.07832 6.875 14.75 C 7.1559806 14.09417 7.1035653 14.09483 7.96875 14.21875 C 8.2975084 14.26569 8.42453 14.24725 8.5 14.15625 C 8.5989903 14.0369 10 8.57933 10 8.3125 C 10 8.04791 9.6172672 7.77406 9.0625 7.65625 C 8.632121 7.56486 8.529652 7.51703 8.5625 7.40625 C 8.5853627 7.32915 8.662166 7.05217 8.71875 6.8125 C 8.7753319 6.57281 8.845504 6.3462 8.875 6.3125 C 8.9044969 6.27888 9.4483634 6.39965 10.09375 6.5625 C 10.807068 6.74256 11.28064 6.83285 11.3125 6.78125 C 11.341323 6.73457 11.449037 6.29347 11.5625 5.8125 C 11.675962 5.33154 11.8067 4.92915 11.84375 4.90625 C 11.854293 4.899728 11.956674 4.9335137 12 4.9375 L 12 3.03125 C 11.863289 3.0318787 11.730664 3.025865 11.59375 3.03125 z M 12 9.3125 C 11.822186 10.033439 11.619167 10.977051 11.65625 11 C 11.678131 11.013529 11.870801 11.056693 12 11.09375 L 12 9.3125 z M 11.3125 12.25 C 11.279005 12.255564 11.256545 12.2623 11.25 12.28125 C 11.206152 12.40807 10.625 14.85715 10.625 14.90625 C 10.625 14.9255 10.91 15.01045 11.28125 15.09375 C 11.624415 15.170795 11.915874 15.257755 12 15.28125 L 12 12.375 C 11.650002 12.284477 11.402739 12.235011 11.3125 12.25 z "
         style="fill:#dfdbd2;display:inline" />
    </g>
    <g
       id="g3785"
       style="opacity:0.4">
      <path
         inkscape:connector-curvature="0"
         style="display:inline;opacity:0.29999999999999999"
         d="m 12,236.03125 0,1.90625 c 0.248503,0.0229 0.869479,0.15071 0.9375,0.21875 0.02563,0.0257 -0.06142,0.46522 -0.1875,0.96875 -0.126084,0.50352 -0.21875,0.9179 -0.21875,0.9375 0,0.0443 0.733663,0.25 0.90625,0.25 0.08748,0 0.177856,-0.2996 0.34375,-0.96875 0.194896,-0.78612 0.259009,-0.9719 0.375,-0.9375 0.078,0.0232 0.354235,0.0991 0.59375,0.15625 0.239514,0.0571 0.428,0.118 0.4375,0.125 0.0094,0.006 -0.08011,0.45166 -0.21875,1 -0.138648,0.54836 -0.2595,0.996 -0.25,1 0.0094,0.004 0.28238,0.12051 0.59375,0.25 0.756835,0.31473 1.369419,0.80314 1.625,1.28125 0.183565,0.34325 0.21865,0.48354 0.1875,1.09375 -0.04982,0.97603 -0.388258,1.52696 -1.125,1.84375 l -0.34375,0.15625 0.40625,0.3125 c 0.226563,0.16776 0.513599,0.46449 0.625,0.65625 0.178128,0.3066 0.1844,0.44221 0.15625,1.09375 -0.03917,0.90639 -0.302883,1.53477 -0.875,2.0625 -0.557417,0.51408 -1.122045,0.65455 -2.34375,0.59375 -0.527967,-0.0262 -1.02689,-0.0462 -1.09375,-0.0625 -0.08579,-0.0209 -0.16405,0.1637 -0.28125,0.625 -0.09134,0.35952 -0.20276,0.78899 -0.25,0.96875 L 12,254 c 0.09149,-7.9e-4 0.151051,0.002 0.25,0 1.000029,-0.0201 1.311155,-0.0705 1.875,-0.21875 2.449555,-0.64394 4.366555,-2.05441 5.625,-4.15625 1.275025,-2.12955 1.593472,-4.90633 0.84375,-7.28125 -1.043006,-3.30395 -3.803549,-5.70872 -7.21875,-6.25 -0.400505,-0.0635 -0.880736,-0.0648 -1.375,-0.0625 z m 0.21875,5.5 c -0.02481,0.0248 -0.137775,0.45294 -0.21875,0.78125 l 0,1.78125 c 0.09676,0.0277 0.130172,0.0638 0.25,0.0937 0.28873,0.0723 0.807187,0.10435 1.21875,0.0937 0.717063,-0.0184 0.73647,-0.0219 1.03125,-0.34375 0.246681,-0.26936 0.28125,-0.39571 0.28125,-0.71875 0,-0.31382 -0.02912,-0.43575 -0.25,-0.6875 -0.15115,-0.17227 -0.417839,-0.4102 -0.59375,-0.5 -0.282221,-0.14408 -1.67061,-0.5482 -1.71875,-0.5 z M 12,245.375 l 0,2.90625 c 0.0069,0.002 0.05888,-0.001 0.0625,0 0.0479,0.016 0.359477,0.0273 0.71875,0.0312 0.771218,0.008 1.172973,-0.15069 1.46875,-0.59375 0.355207,-0.53207 0.188269,-1.14739 -0.4375,-1.625 -0.382775,-0.29217 -0.756397,-0.42978 -1.71875,-0.6875 C 12.04999,245.3945 12.03974,245.3852 12,245.375 z"
         id="path3015" />
      <path
         id="path3005"
         transform="translate(0,232)"
         d="M 12 3.03125 L 12 4.9375 C 12.248503 4.9603639 12.869479 5.0882123 12.9375 5.15625 C 12.963128 5.1819 12.876084 5.62147 12.75 6.125 C 12.623916 6.62852 12.53125 7.0429 12.53125 7.0625 C 12.53125 7.10679 13.264913 7.3125 13.4375 7.3125 C 13.524976 7.3125 13.615356 7.0129 13.78125 6.34375 C 13.976146 5.55763 14.040259 5.37185 14.15625 5.40625 C 14.234255 5.42942 14.510485 5.5053 14.75 5.5625 C 14.989514 5.61962 15.178 5.6805 15.1875 5.6875 C 15.196943 5.69387 15.107392 6.13916 14.96875 6.6875 C 14.830102 7.23586 14.70925 7.6835 14.71875 7.6875 C 14.728193 7.69174 15.00113 7.80801 15.3125 7.9375 C 16.069335 8.25223 16.681919 8.74064 16.9375 9.21875 C 17.121065 9.562 17.15615 9.70229 17.125 10.3125 C 17.075177 11.28853 16.736742 11.83946 16 12.15625 L 15.65625 12.3125 L 16.0625 12.625 C 16.289063 12.79276 16.576099 13.08949 16.6875 13.28125 C 16.865628 13.58785 16.8719 13.72346 16.84375 14.375 C 16.804581 15.28139 16.540867 15.90977 15.96875 16.4375 C 15.411333 16.95158 14.846705 17.09205 13.625 17.03125 C 13.097033 17.00505 12.59811 16.98505 12.53125 16.96875 C 12.44546 16.94789 12.3672 17.13245 12.25 17.59375 C 12.158665 17.95327 12.04724 18.38274 12 18.5625 L 12 21 C 12.091488 20.999208 12.151051 21.001998 12.25 21 C 13.250029 20.9799 13.561155 20.92947 14.125 20.78125 C 16.574555 20.13731 18.491555 18.72684 19.75 16.625 C 21.025025 14.49545 21.343472 11.71867 20.59375 9.34375 C 19.550744 6.0398 16.790201 3.63503 13.375 3.09375 C 12.974495 3.0302726 12.494264 3.028977 12 3.03125 z M 12.21875 8.53125 C 12.193937 8.5560786 12.080975 8.9841907 12 9.3125 L 12 11.09375 C 12.096757 11.121502 12.130172 11.157525 12.25 11.1875 C 12.53873 11.25983 13.057187 11.29185 13.46875 11.28125 C 14.185813 11.26282 14.20522 11.25937 14.5 10.9375 C 14.746681 10.66814 14.78125 10.54179 14.78125 10.21875 C 14.78125 9.90493 14.752133 9.783 14.53125 9.53125 C 14.3801 9.35898 14.113411 9.12105 13.9375 9.03125 C 13.655279 8.88717 12.26689 8.48305 12.21875 8.53125 z M 12 12.375 L 12 15.28125 C 12.006884 15.283173 12.058877 15.280047 12.0625 15.28125 C 12.110404 15.29725 12.421977 15.3085 12.78125 15.3125 C 13.552468 15.32046 13.954223 15.16181 14.25 14.71875 C 14.605207 14.18668 14.438269 13.57136 13.8125 13.09375 C 13.429725 12.80158 13.056103 12.66397 12.09375 12.40625 C 12.049992 12.394525 12.039738 12.385278 12 12.375 z "
         style="fill:#dfdbd2;display:inline" />
    </g>
  </g>
</svg>
