<?xml version="1.0" encoding="UTF-8" standalone="no"?>
<!-- Created with Inkscape (http://www.inkscape.org/) -->

<svg
   xmlns:dc="http://purl.org/dc/elements/1.1/"
   xmlns:cc="http://creativecommons.org/ns#"
   xmlns:rdf="http://www.w3.org/1999/02/22-rdf-syntax-ns#"
   xmlns:svg="http://www.w3.org/2000/svg"
   xmlns="http://www.w3.org/2000/svg"
   xmlns:sodipodi="http://sodipodi.sourceforge.net/DTD/sodipodi-0.dtd"
   xmlns:inkscape="http://www.inkscape.org/namespaces/inkscape"
   id="svg2"
   version="1.1"
   inkscape:version="0.48.3.1 r9886"
   width="24"
   height="24"
   sodipodi:docname="indicator-bitcoin-24.svg"
   inkscape:export-filename="/store/orion/projects/bitcoin/BC_Logo_icon32.png"
   inkscape:export-xdpi="11.25"
   inkscape:export-ydpi="11.25"
   style="display:inline">
  <metadata
     id="metadata8">
    <rdf:RDF>
      <cc:Work
         rdf:about="">
        <dc:format>image/svg+xml</dc:format>
        <dc:type
           rdf:resource="http://purl.org/dc/dcmitype/StillImage" />
        <dc:title></dc:title>
      </cc:Work>
    </rdf:RDF>
  </metadata>
  <sodipodi:namedview
     pagecolor="#ffffff"
     bordercolor="#666666"
     borderopacity="1"
     objecttolerance="10"
     gridtolerance="10"
     guidetolerance="10"
     inkscape:pageopacity="0"
     inkscape:pageshadow="2"
     inkscape:window-width="1275"
     inkscape:window-height="972"
     id="namedview4"
     showgrid="true"
     inkscape:zoom="16"
     inkscape:cx="-1.2828116"
     inkscape:cy="15.676138"
     inkscape:window-x="1700"
     inkscape:window-y="115"
     inkscape:window-maximized="0"
     inkscape:current-layer="layer1"
     inkscape:object-paths="false"
     inkscape:snap-nodes="false">
    <inkscape:grid
       type="xygrid"
       id="grid3778"
       empspacing="5"
       visible="true"
       enabled="true"
       snapvisiblegridlinesonly="true" />
  </sodipodi:namedview>
  <g
     inkscape:groupmode="layer"
     id="layer1"
     inkscape:label="Front"
     style="display:inline"
     transform="translate(0,-232)">
    <path
       inkscape:export-ydpi="11.98"
       inkscape:export-xdpi="11.98"
       sodipodi:nodetypes="sssssssssssscssssscsssscscssssssssssscscsssssssscscssssscssscssssssscsssssssss"
       inkscape:connector-curvature="0"
       id="path3780"
       d="m 10.48634,253.88697 c -3.3427547,-0.58743 -6.0659141,-2.97714 -7.0902868,-6.22208 -0.7497219,-2.37491 -0.4270618,-5.14171 0.8479622,-7.27125 1.2587568,-2.10236 3.1994712,-3.53912 5.6432314,-4.17777 0.9111272,-0.23814 2.4719202,-0.29952 3.4944862,-0.13745 3.415201,0.54128 6.183518,2.92899 7.226524,6.23294 0.749722,2.37492 0.427062,5.14171 -0.847963,7.27126 -1.258445,2.10184 -3.193675,3.53487 -5.64323,4.17881 -0.563845,0.14822 -0.868838,0.18104 -1.868867,0.20114 -0.817082,0.0165 -1.374328,-0.008 -1.761857,-0.0757 z m 1.511121,-2.34992 c 0.04724,-0.17976 0.160621,-0.62099 0.251956,-0.98051 0.1172,-0.4613 0.201836,-0.64496 0.287626,-0.6241 0.06686,0.0163 0.553533,0.0511 1.0815,0.0773 1.221705,0.0608 1.797091,-0.0859 2.354508,-0.59998 0.572117,-0.52773 0.846581,-1.17164 0.88575,-2.07803 0.02815,-0.65154 0.0076,-0.78284 -0.170528,-1.08944 -0.111401,-0.19176 -0.387915,-0.48591 -0.614478,-0.65367 l -0.411934,-0.30504 0.327395,-0.1408 c 0.736742,-0.31679 1.084114,-0.88777 1.133937,-1.8638 0.03115,-0.61021 0.0095,-0.74621 -0.174065,-1.08946 -0.255581,-0.47811 -0.877251,-0.96497 -1.634086,-1.2797 -0.31137,-0.12949 -0.573852,-0.23889 -0.583295,-0.24313 -0.0095,-0.004 0.09626,-0.45634 0.234908,-1.0047 0.138642,-0.54834 0.244353,-1.0022 0.23491,-1.00857 -0.0095,-0.007 -0.213135,-0.0584 -0.452649,-0.11552 -0.239515,-0.0572 -0.499304,-0.12293 -0.577309,-0.1461 -0.115991,-0.0344 -0.185234,0.13295 -0.38013,0.91907 -0.165894,0.66915 -0.276483,0.96122 -0.363959,0.96122 -0.172587,0 -0.89956,-0.1866 -0.89956,-0.23089 0,-0.0196 0.103161,-0.44786 0.229245,-0.95138 0.126084,-0.50353 0.208277,-0.93648 0.182649,-0.96213 -0.07988,-0.0799 -1.023438,-0.30511 -1.094454,-0.26118 -0.03705,0.0229 -0.160203,0.43518 -0.273665,0.91614 -0.113463,0.48097 -0.229881,0.91267 -0.258704,0.95935 -0.03186,0.0516 -0.512521,-0.0312 -1.225839,-0.21126 -0.6453866,-0.16285 -1.1975645,-0.26858 -1.2270614,-0.23496 -0.029496,0.0337 -0.099927,0.25727 -0.1565089,0.49696 -0.056584,0.23967 -0.1215832,0.49887 -0.1444459,0.57597 -0.032848,0.11078 0.072722,0.16448 0.503101,0.25587 0.5547672,0.11781 0.9398882,0.38328 0.9398882,0.64787 0,0.26683 -1.4058636,5.75123 -1.5048539,5.87058 -0.07547,0.091 -0.2102571,0.10564 -0.5390155,0.0587 -0.8651847,-0.12392 -0.8161656,-0.14667 -1.0971462,0.50916 -0.1406585,0.32832 -0.2557444,0.62419 -0.2557444,0.65751 0,0.0333 0.4605226,0.17221 1.0233831,0.30866 0.5628605,0.13646 1.1079142,0.27945 1.2112306,0.31776 l 0.1878482,0.0695 -0.2485639,0.9831 c -0.13671,0.5407 -0.2408383,0.9906 -0.2313969,0.99978 0.041188,0.04 1.1278103,0.30078 1.1520914,0.27647 0.014821,-0.0149 0.1308351,-0.43707 0.2578047,-0.93831 0.1269688,-0.50121 0.2477858,-0.93875 0.2684818,-0.97226 0.03319,-0.0538 0.878925,0.12636 0.956085,0.20357 0.01647,0.0165 -0.08124,0.46965 -0.217114,1.00706 l -0.247044,0.97708 0.360521,0.0927 c 0.198289,0.0509 0.399716,0.10701 0.447618,0.12461 0.272115,0.1 0.389353,0.0301 0.471113,-0.28107 z m 0.05147,-3.28917 c -0.0479,-0.0159 -0.390845,-0.0971 -0.762092,-0.18045 -0.37125,-0.0833 -0.674998,-0.16736 -0.674998,-0.18661 0,-0.0491 0.607672,-2.48714 0.65152,-2.61396 0.02618,-0.0758 0.248818,-0.047 0.821036,0.10633 0.962353,0.25772 1.348188,0.41545 1.730963,0.70762 0.625769,0.47761 0.786226,1.07641 0.431019,1.60848 -0.295777,0.44306 -0.685909,0.60214 -1.457127,0.59418 -0.359273,-0.004 -0.692417,-0.0197 -0.740321,-0.0357 z m 0.187983,-4.10024 c -0.279833,-0.07 -0.540098,-0.14675 -0.578365,-0.17041 -0.05397,-0.0334 0.473105,-2.37886 0.552405,-2.45821 0.04814,-0.0482 1.42982,0.35292 1.712041,0.497 0.175911,0.0898 0.443505,0.30422 0.594655,0.47649 0.220883,0.25175 0.274816,0.38984 0.274816,0.70366 0,0.32304 -0.05146,0.44665 -0.298141,0.71601 -0.29478,0.32187 -0.30632,0.32576 -1.023383,0.34419 -0.411563,0.0106 -0.945298,-0.0364 -1.234028,-0.10873 z"
       style="display:inline;opacity:0.3" />
    <path
       style="fill:#19b6ee;display:inline"
       d="m 10.48634,252.91479 c -3.3427547,-0.58743 -6.0659141,-2.97714 -7.0902868,-6.22208 -0.7497219,-2.37491 -0.4270618,-5.14171 0.8479622,-7.27125 1.2587568,-2.10236 3.1994712,-3.53912 5.6432314,-4.17777 0.9111272,-0.23814 2.4719202,-0.29952 3.4944862,-0.13745 3.415201,0.54128 6.183518,2.92899 7.226524,6.23294 0.749722,2.37492 0.427062,5.14171 -0.847963,7.27126 -1.258445,2.10184 -3.193675,3.53487 -5.64323,4.17881 -0.563845,0.14822 -0.868838,0.18104 -1.868867,0.20114 -0.817082,0.0165 -1.374328,-0.008 -1.761857,-0.0757 z m 1.511121,-2.34992 c 0.04724,-0.17976 0.160621,-0.62099 0.251956,-0.98051 0.1172,-0.4613 0.201836,-0.64496 0.287626,-0.6241 0.06686,0.0163 0.553533,0.0511 1.0815,0.0773 1.221705,0.0608 1.797091,-0.0859 2.354508,-0.59998 0.572117,-0.52773 0.846581,-1.17164 0.88575,-2.07803 0.02815,-0.65154 0.0076,-0.78284 -0.170528,-1.08944 -0.111401,-0.19176 -0.387915,-0.48591 -0.614478,-0.65367 l -0.411934,-0.30504 0.327395,-0.1408 c 0.736742,-0.31679 1.084114,-0.88777 1.133937,-1.8638 0.03115,-0.61021 0.0095,-0.74621 -0.174065,-1.08946 -0.255581,-0.47811 -0.877251,-0.96497 -1.634086,-1.2797 -0.31137,-0.12949 -0.573852,-0.23889 -0.583295,-0.24313 -0.0095,-0.004 0.09626,-0.45634 0.234908,-1.0047 0.138642,-0.54834 0.244353,-1.0022 0.23491,-1.00857 -0.0095,-0.007 -0.213135,-0.0584 -0.452649,-0.11552 -0.239515,-0.0572 -0.499304,-0.12293 -0.577309,-0.1461 -0.115991,-0.0344 -0.185234,0.13295 -0.38013,0.91907 -0.165894,0.66915 -0.276483,0.96122 -0.363959,0.96122 -0.172587,0 -0.89956,-0.1866 -0.89956,-0.23089 0,-0.0196 0.103161,-0.44786 0.229245,-0.95138 0.126084,-0.50353 0.208277,-0.93648 0.182649,-0.96213 -0.07988,-0.0799 -1.023438,-0.30511 -1.094454,-0.26118 -0.03705,0.0229 -0.160203,0.43518 -0.273665,0.91614 -0.113463,0.48097 -0.229881,0.91267 -0.258704,0.95935 -0.03186,0.0516 -0.512521,-0.0312 -1.225839,-0.21126 -0.6453866,-0.16285 -1.1975645,-0.26858 -1.2270614,-0.23496 -0.029496,0.0337 -0.099927,0.25727 -0.1565089,0.49696 -0.056584,0.23967 -0.1215832,0.49887 -0.1444459,0.57597 -0.032848,0.11078 0.072722,0.16448 0.503101,0.25587 0.5547672,0.11781 0.9398882,0.38328 0.9398882,0.64787 0,0.26683 -1.4058636,5.75123 -1.5048539,5.87058 -0.07547,0.091 -0.2102571,0.10564 -0.5390155,0.0587 -0.8651847,-0.12392 -0.8161656,-0.14667 -1.0971462,0.50916 -0.1406585,0.32832 -0.2557444,0.62419 -0.2557444,0.65751 0,0.0333 0.4605226,0.17221 1.0233831,0.30866 0.5628605,0.13646 1.1079142,0.27945 1.2112306,0.31776 l 0.1878482,0.0695 -0.2485639,0.9831 c -0.13671,0.5407 -0.2408383,0.9906 -0.2313969,0.99978 0.041188,0.04 1.1278103,0.30078 1.1520914,0.27647 0.014821,-0.0149 0.1308351,-0.43707 0.2578047,-0.93831 0.1269688,-0.50121 0.2477858,-0.93875 0.2684818,-0.97226 0.03319,-0.0538 0.878925,0.12636 0.956085,0.20357 0.01647,0.0165 -0.08124,0.46965 -0.217114,1.00706 l -0.247044,0.97708 0.360521,0.0927 c 0.198289,0.0509 0.399716,0.10701 0.447618,0.12461 0.272115,0.1 0.389353,0.0301 0.471113,-0.28107 z m 0.05147,-3.28917 c -0.0479,-0.0159 -0.390845,-0.0971 -0.762092,-0.18045 -0.37125,-0.0833 -0.674998,-0.16736 -0.674998,-0.18661 0,-0.0491 0.607672,-2.48714 0.65152,-2.61396 0.02618,-0.0758 0.248818,-0.047 0.821036,0.10633 0.962353,0.25772 1.348188,0.41545 1.730963,0.70762 0.625769,0.47761 0.786226,1.07641 0.431019,1.60848 -0.295777,0.44306 -0.685909,0.60214 -1.457127,0.59418 -0.359273,-0.004 -0.692417,-0.0197 -0.740321,-0.0357 z m 0.187983,-4.10024 c -0.279833,-0.07 -0.540098,-0.14675 -0.578365,-0.17041 -0.05397,-0.0334 0.473105,-2.37886 0.552405,-2.45821 0.04814,-0.0482 1.42982,0.35292 1.712041,0.497 0.175911,0.0898 0.443505,0.30422 0.594655,0.47649 0.220883,0.25175 0.274816,0.38984 0.274816,0.70366 0,0.32304 -0.05146,0.44665 -0.298141,0.71601 -0.29478,0.32187 -0.30632,0.32576 -1.023383,0.34419 -0.411563,0.0106 -0.945298,-0.0364 -1.234028,-0.10873 z"
       id="path2987"
       inkscape:connector-curvature="0"
       sodipodi:nodetypes="sssssssssssscssssscsssscscssssssssssscscsssssssscscssssscssscssssssscsssssssss"
       inkscape:export-xdpi="11.98"
       inkscape:export-ydpi="11.98" />
  </g>
</svg>
