<?xml version="1.0" encoding="UTF-8" standalone="no"?>
<!-- Created with Inkscape (http://www.inkscape.org/) -->

<svg
   xmlns:dc="http://purl.org/dc/elements/1.1/"
   xmlns:cc="http://creativecommons.org/ns#"
   xmlns:rdf="http://www.w3.org/1999/02/22-rdf-syntax-ns#"
   xmlns:svg="http://www.w3.org/2000/svg"
   xmlns="http://www.w3.org/2000/svg"
   xmlns:sodipodi="http://sodipodi.sourceforge.net/DTD/sodipodi-0.dtd"
   xmlns:inkscape="http://www.inkscape.org/namespaces/inkscape"
   id="svg2"
   version="1.1"
   inkscape:version="0.48.3.1 r9886"
   width="22"
   height="16"
   sodipodi:docname="indicator-bitcoin-22.svg"
   inkscape:export-filename="/store/orion/projects/bitcoin/BC_Logo_icon32.png"
   inkscape:export-xdpi="11.25"
   inkscape:export-ydpi="11.25"
   style="display:inline">
  <metadata
     id="metadata8">
    <rdf:RDF>
      <cc:Work
         rdf:about="">
        <dc:format>image/svg+xml</dc:format>
        <dc:type
           rdf:resource="http://purl.org/dc/dcmitype/StillImage" />
        <dc:title></dc:title>
      </cc:Work>
    </rdf:RDF>
  </metadata>
  <sodipodi:namedview
     pagecolor="#ffffff"
     bordercolor="#666666"
     borderopacity="1"
     objecttolerance="10"
     gridtolerance="10"
     guidetolerance="10"
     inkscape:pageopacity="0"
     inkscape:pageshadow="2"
     inkscape:window-width="1275"
     inkscape:window-height="972"
     id="namedview4"
     showgrid="true"
     inkscape:zoom="16"
     inkscape:cx="13.032932"
     inkscape:cy="6.842364"
     inkscape:window-x="1688"
     inkscape:window-y="119"
     inkscape:window-maximized="0"
     inkscape:current-layer="layer1"
     inkscape:object-paths="false"
     inkscape:snap-nodes="false">
    <inkscape:grid
       type="xygrid"
       id="grid3778"
       empspacing="5"
       visible="true"
       enabled="true"
       snapvisiblegridlinesonly="true" />
  </sodipodi:namedview>
  <g
     inkscape:groupmode="layer"
     id="layer1"
     inkscape:label="Front"
     style="display:inline"
     transform="translate(0,-240)">
    <path
       inkscape:export-ydpi="11.98"
       inkscape:export-xdpi="11.98"
       sodipodi:nodetypes="sssssssssssscssssscsssscscssssssssssscscsssssssscscssssscssscssssssscsssssssss"
       inkscape:connector-curvature="0"
       id="path3841"
       d="m 9.9951742,254.94166 c -2.2278479,-0.39149 -4.0427532,-1.98412 -4.7254673,-4.14672 -0.4996675,-1.58278 -0.2846241,-3.42671 0.5651418,-4.84595 0.8389242,-1.40112 2.132353,-2.35866 3.7610466,-2.7843 0.6072387,-0.15869 1.6474627,-0.1996 2.3289717,-0.0916 2.276131,0.36073 4.121133,1.95203 4.816265,4.15396 0.499667,1.58278 0.284625,3.42671 -0.565142,4.84596 -0.838717,1.40077 -2.12849,2.35583 -3.761047,2.78497 -0.375785,0.0988 -0.579054,0.12066 -1.245544,0.13405 -0.54456,0.011 -0.915949,-0.005 -1.1742248,-0.0505 z m 1.0071178,-1.5661 c 0.03148,-0.11981 0.107049,-0.41387 0.16792,-0.65347 0.07812,-0.30744 0.134518,-0.42984 0.191694,-0.41593 0.04456,0.0108 0.368913,0.0341 0.720788,0.0515 0.814231,0.0406 1.197709,-0.0572 1.56921,-0.39985 0.3813,-0.35171 0.564222,-0.78085 0.590327,-1.38492 0.01877,-0.43421 0.005,-0.52172 -0.113652,-0.72606 -0.07425,-0.12779 -0.258534,-0.32383 -0.409532,-0.43563 l -0.274541,-0.2033 0.218199,-0.0938 c 0.491017,-0.21114 0.72253,-0.59166 0.755735,-1.24214 0.02076,-0.40667 0.0063,-0.49731 -0.116009,-0.72608 -0.170338,-0.31863 -0.584662,-0.6431 -1.08907,-0.85286 -0.207519,-0.0863 -0.382456,-0.15921 -0.388749,-0.16203 -0.0063,-0.003 0.06415,-0.30413 0.156559,-0.66958 0.0924,-0.36545 0.162854,-0.66793 0.15656,-0.67218 -0.0063,-0.004 -0.142048,-0.0389 -0.301676,-0.077 -0.15963,-0.0381 -0.332772,-0.0819 -0.38476,-0.0974 -0.07731,-0.0228 -0.123452,0.0886 -0.253346,0.61252 -0.110563,0.44597 -0.184268,0.64061 -0.242567,0.64061 -0.115024,0 -0.599531,-0.12436 -0.599531,-0.15387 0,-0.0131 0.06875,-0.29849 0.152785,-0.63406 0.08403,-0.33558 0.138812,-0.62411 0.12173,-0.6412 -0.05324,-0.0533 -0.68209,-0.20335 -0.72942,-0.17407 -0.02469,0.0153 -0.106771,0.29002 -0.18239,0.61057 -0.07562,0.32054 -0.153209,0.60824 -0.172419,0.63935 -0.02123,0.0344 -0.341579,-0.0208 -0.8169854,-0.14079 -0.4301306,-0.10854 -0.7981415,-0.17899 -0.8177998,-0.1566 -0.019655,0.0225 -0.066601,0.17147 -0.1043087,0.33121 -0.037707,0.15973 -0.081028,0.33248 -0.096268,0.38386 -0.021892,0.0738 0.048464,0.10962 0.3353017,0.17052 0.3697358,0.0785 0.6264072,0.25544 0.6264072,0.43177 0,0.17784 -0.9369659,3.83293 -1.0029404,3.91248 -0.050298,0.0606 -0.1401298,0.0704 -0.3592377,0.0391 -0.5766201,-0.0826 -0.5439504,-0.0978 -0.7312156,0.33934 -0.093745,0.21881 -0.1704461,0.41598 -0.1704461,0.43819 0,0.0222 0.3069248,0.11478 0.6820547,0.20571 0.3751302,0.091 0.7383919,0.18624 0.807249,0.21177 l 0.1251954,0.0463 -0.1656605,0.65517 c -0.091113,0.36036 -0.1605116,0.6602 -0.1542191,0.66632 0.027446,0.0266 0.7516521,0.20046 0.7678342,0.18425 0.00988,-0.01 0.087198,-0.29128 0.1718199,-0.62533 0.084618,-0.33403 0.1651413,-0.62563 0.1789347,-0.64797 0.022125,-0.0358 0.5857765,0.0842 0.6372025,0.13567 0.01098,0.011 -0.05415,0.313 -0.1447,0.67116 l -0.164647,0.65117 0.240275,0.0617 c 0.132154,0.034 0.2664,0.0714 0.298324,0.083 0.181358,0.0667 0.259493,0.0201 0.313984,-0.18733 z m 0.0343,-2.19209 c -0.03192,-0.0106 -0.260487,-0.0647 -0.507912,-0.12026 -0.247427,-0.0555 -0.449866,-0.11153 -0.449866,-0.12436 0,-0.0328 0.404995,-1.65757 0.434219,-1.74209 0.01745,-0.0505 0.165829,-0.0313 0.547196,0.0709 0.641379,0.17176 0.898527,0.27688 1.153636,0.4716 0.417056,0.3183 0.523996,0.71737 0.287261,1.07196 -0.197126,0.29529 -0.457138,0.4013 -0.971132,0.39601 -0.239445,-0.003 -0.461475,-0.0132 -0.493402,-0.0238 z m 0.125286,-2.73261 c -0.186502,-0.0466 -0.359961,-0.0978 -0.385464,-0.11358 -0.03596,-0.0222 0.31531,-1.5854 0.368162,-1.63827 0.03209,-0.0322 0.952932,0.23519 1.141024,0.33122 0.11724,0.0599 0.295583,0.20275 0.396321,0.31756 0.147211,0.16777 0.183156,0.2598 0.183156,0.46896 0,0.21529 -0.03429,0.29767 -0.198702,0.47717 -0.196462,0.21453 -0.204153,0.21712 -0.682055,0.2294 -0.274294,0.007 -0.630013,-0.0242 -0.822442,-0.0725 z"
       style="display:inline;opacity:0.3" />
    <path
       style="fill:#dfdbd2;display:inline"
       d="m 9.9951742,253.94166 c -2.2278479,-0.39149 -4.0427532,-1.98412 -4.7254673,-4.14672 -0.4996675,-1.58278 -0.2846241,-3.42671 0.5651418,-4.84595 0.8389242,-1.40112 2.132353,-2.35866 3.7610466,-2.7843 0.6072387,-0.15869 1.6474627,-0.1996 2.3289717,-0.0916 2.276131,0.36073 4.121133,1.95203 4.816265,4.15396 0.499667,1.58278 0.284625,3.42671 -0.565142,4.84596 -0.838717,1.40077 -2.12849,2.35583 -3.761047,2.78497 -0.375785,0.0988 -0.579054,0.12066 -1.245544,0.13405 -0.54456,0.011 -0.915949,-0.005 -1.1742248,-0.0505 z m 1.0071178,-1.5661 c 0.03148,-0.11981 0.107049,-0.41387 0.16792,-0.65347 0.07812,-0.30744 0.134518,-0.42984 0.191694,-0.41593 0.04456,0.0108 0.368913,0.0341 0.720788,0.0515 0.814231,0.0406 1.197709,-0.0572 1.56921,-0.39985 0.3813,-0.35171 0.564222,-0.78085 0.590327,-1.38492 0.01877,-0.43421 0.005,-0.52172 -0.113652,-0.72606 -0.07425,-0.12779 -0.258534,-0.32383 -0.409532,-0.43563 l -0.274541,-0.2033 0.218199,-0.0938 c 0.491017,-0.21114 0.72253,-0.59166 0.755735,-1.24214 0.02076,-0.40667 0.0063,-0.49731 -0.116009,-0.72608 -0.170338,-0.31863 -0.584662,-0.6431 -1.08907,-0.85286 -0.207519,-0.0863 -0.382456,-0.15921 -0.388749,-0.16203 -0.0063,-0.003 0.06415,-0.30413 0.156559,-0.66958 0.0924,-0.36545 0.162854,-0.66793 0.15656,-0.67218 -0.0063,-0.004 -0.142048,-0.0389 -0.301676,-0.077 -0.15963,-0.0381 -0.332772,-0.0819 -0.38476,-0.0974 -0.07731,-0.0228 -0.123452,0.0886 -0.253346,0.61252 -0.110563,0.44597 -0.184268,0.64061 -0.242567,0.64061 -0.115024,0 -0.599531,-0.12436 -0.599531,-0.15387 0,-0.0131 0.06875,-0.29849 0.152785,-0.63406 0.08403,-0.33558 0.138812,-0.62411 0.12173,-0.6412 -0.05324,-0.0533 -0.68209,-0.20335 -0.72942,-0.17407 -0.02469,0.0153 -0.106771,0.29002 -0.18239,0.61057 -0.07562,0.32054 -0.153209,0.60824 -0.172419,0.63935 -0.02123,0.0344 -0.341579,-0.0208 -0.8169854,-0.14079 -0.4301306,-0.10854 -0.7981415,-0.17899 -0.8177998,-0.1566 -0.019655,0.0225 -0.066601,0.17147 -0.1043087,0.33121 -0.037707,0.15973 -0.081028,0.33248 -0.096268,0.38386 -0.021892,0.0738 0.048464,0.10962 0.3353017,0.17052 0.3697358,0.0785 0.6264072,0.25544 0.6264072,0.43177 0,0.17784 -0.9369659,3.83293 -1.0029404,3.91248 -0.050298,0.0606 -0.1401298,0.0704 -0.3592377,0.0391 -0.5766201,-0.0826 -0.5439504,-0.0978 -0.7312156,0.33934 -0.093745,0.21881 -0.1704461,0.41598 -0.1704461,0.43819 0,0.0222 0.3069248,0.11478 0.6820547,0.20571 0.3751302,0.091 0.7383919,0.18624 0.807249,0.21177 l 0.1251954,0.0463 -0.1656605,0.65517 c -0.091113,0.36036 -0.1605116,0.6602 -0.1542191,0.66632 0.027446,0.0266 0.7516521,0.20046 0.7678342,0.18425 0.00988,-0.01 0.087198,-0.29128 0.1718199,-0.62533 0.084618,-0.33403 0.1651413,-0.62563 0.1789347,-0.64797 0.022125,-0.0358 0.5857769,0.0842 0.6372029,0.13567 0.01098,0.011 -0.05415,0.313 -0.1447,0.67116 l -0.164647,0.65117 0.240275,0.0617 c 0.132154,0.034 0.2664,0.0714 0.298324,0.083 0.181358,0.0667 0.259493,0.0201 0.313984,-0.18733 z m 0.0343,-2.19209 c -0.03192,-0.0106 -0.260487,-0.0647 -0.507912,-0.12026 -0.247427,-0.0555 -0.449866,-0.11153 -0.449866,-0.12436 0,-0.0328 0.404995,-1.65757 0.434219,-1.74209 0.01745,-0.0505 0.165829,-0.0313 0.547196,0.0709 0.641379,0.17176 0.898527,0.27688 1.153636,0.4716 0.417056,0.3183 0.523996,0.71737 0.287261,1.07196 -0.197126,0.29529 -0.457138,0.4013 -0.971132,0.39601 -0.239445,-0.003 -0.461475,-0.0132 -0.493402,-0.0238 z m 0.125286,-2.73261 c -0.186502,-0.0466 -0.359961,-0.0978 -0.385464,-0.11358 -0.03596,-0.0222 0.31531,-1.5854 0.368162,-1.63827 0.03209,-0.0322 0.952932,0.23519 1.141024,0.33122 0.11724,0.0599 0.295583,0.20275 0.396321,0.31756 0.147211,0.16777 0.183156,0.2598 0.183156,0.46896 0,0.21529 -0.03429,0.29767 -0.198702,0.47717 -0.196462,0.21453 -0.204153,0.21712 -0.682055,0.2294 -0.274294,0.007 -0.630013,-0.0242 -0.822442,-0.0725 z"
       id="path2987"
       inkscape:connector-curvature="0"
       sodipodi:nodetypes="sssssssssssscssssscsssscscssssssssssscscsssssssscscssssscssscssssssscsssssssss"
       inkscape:export-xdpi="11.98"
       inkscape:export-ydpi="11.98" />
  </g>
</svg>
